<svg width="16" height="16" viewBox="0 0 16 16" fill="none" xmlns="http://www.w3.org/2000/svg">
<g clip-path="url(#clip0_2117_19179)">
<path d="M6.64444 11.5334L13.0667 5.08895L12.1111 4.13339L6.64444 9.62228L4 6.97784L3.04444 7.93339L6.64444 11.5334ZM1.33333 16.0001C0.977778 16.0001 0.666667 15.8667 0.4 15.6001C0.133333 15.3334 0 15.0223 0 14.6667V1.33339C0 0.977839 0.133333 0.666728 0.4 0.400061C0.666667 0.133394 0.977778 6.10352e-05 1.33333 6.10352e-05H14.6667C15.0222 6.10352e-05 15.3333 0.133394 15.6 0.400061C15.8667 0.666728 16 0.977839 16 1.33339V14.6667C16 15.0223 15.8667 15.3334 15.6 15.6001C15.3333 15.8667 15.0222 16.0001 14.6667 16.0001H1.33333Z" fill="#4546B9"/>
</g>
<defs>
<clipPath id="clip0_2117_19179">
<rect width="16" height="16" fill="white"/>
</clipPath>
</defs>
</svg>
