<svg width="18" height="18" viewBox="0 0 18 18" fill="none" xmlns="http://www.w3.org/2000/svg">
  <path d="M7.83317 12.8332L13.7082 6.95817L12.5415 5.7915L7.83317 10.4998L5.45817 8.12484L4.2915 9.2915L7.83317 12.8332ZM8.99984 17.3332C7.84706 17.3332 6.76373 17.1143 5.74984 16.6765C4.73595 16.2393 3.854 15.6457 3.104 14.8957C2.354 14.1457 1.76039 13.2637 1.32317 12.2498C0.885393 11.2359 0.666504 10.1526 0.666504 8.99984C0.666504 7.84706 0.885393 6.76373 1.32317 5.74984C1.76039 4.73595 2.354 3.854 3.104 3.104C3.854 2.354 4.73595 1.76011 5.74984 1.32234C6.76373 0.885115 7.84706 0.666504 8.99984 0.666504C10.1526 0.666504 11.2359 0.885115 12.2498 1.32234C13.2637 1.76011 14.1457 2.354 14.8957 3.104C15.6457 3.854 16.2393 4.73595 16.6765 5.74984C17.1143 6.76373 17.3332 7.84706 17.3332 8.99984C17.3332 10.1526 17.1143 11.2359 16.6765 12.2498C16.2393 13.2637 15.6457 14.1457 14.8957 14.8957C14.1457 15.6457 13.2637 16.2393 12.2498 16.6765C11.2359 17.1143 10.1526 17.3332 8.99984 17.3332Z" fill="#014C07"/>
</svg>
