<svg width="18" height="16" viewBox="0 0 18 16" fill="none" xmlns="http://www.w3.org/2000/svg">
  <path d="M1.56746 15.4998C0.797125 15.4998 0.316064 14.6655 0.702029 13.9988L8.13425 1.16133C8.51941 0.496046 9.47994 0.496046 9.8651 1.16133L17.2973 13.9988C17.6833 14.6655 17.2022 15.4998 16.4319 15.4998H1.56746ZM8.99967 12.9998C9.23579 12.9998 9.4337 12.92 9.59342 12.7603C9.75315 12.6005 9.83301 12.4026 9.83301 12.1665C9.83301 11.9304 9.75315 11.7325 9.59342 11.5728C9.4337 11.413 9.23579 11.3332 8.99967 11.3332C8.76356 11.3332 8.56565 11.413 8.40592 11.5728C8.2462 11.7325 8.16634 11.9304 8.16634 12.1665C8.16634 12.4026 8.2462 12.6005 8.40592 12.7603C8.56565 12.92 8.76356 12.9998 8.99967 12.9998ZM8.16634 9.6665C8.16634 10.1267 8.53944 10.4998 8.99967 10.4998C9.45991 10.4998 9.83301 10.1267 9.83301 9.6665V7.1665C9.83301 6.70627 9.45991 6.33317 8.99967 6.33317C8.53944 6.33317 8.16634 6.70627 8.16634 7.1665V9.6665Z" fill="#622E04"/>
</svg>
