<svg width="16" height="16" viewBox="0 0 16 16" fill="none" xmlns="http://www.w3.org/2000/svg">
<path d="M7.3335 11.3334H4.66683C3.74461 11.3334 2.9585 11.0084 2.3085 10.3584C1.6585 9.70835 1.3335 8.92224 1.3335 8.00002C1.3335 7.0778 1.6585 6.29169 2.3085 5.64169C2.9585 4.99169 3.74461 4.66669 4.66683 4.66669H7.3335V6.00002H4.66683C4.11127 6.00002 3.63905 6.19446 3.25016 6.58335C2.86127 6.97224 2.66683 7.44446 2.66683 8.00002C2.66683 8.55558 2.86127 9.0278 3.25016 9.41669C3.63905 9.80558 4.11127 10 4.66683 10H7.3335V11.3334ZM5.3335 8.66669V7.33335H10.6668V8.66669H5.3335ZM8.66683 11.3334V10H11.3335C11.8891 10 12.3613 9.80558 12.7502 9.41669C13.1391 9.0278 13.3335 8.55558 13.3335 8.00002C13.3335 7.44446 13.1391 6.97224 12.7502 6.58335C12.3613 6.19446 11.8891 6.00002 11.3335 6.00002H8.66683V4.66669H11.3335C12.2557 4.66669 13.0418 4.99169 13.6918 5.64169C14.3418 6.29169 14.6668 7.0778 14.6668 8.00002C14.6668 8.92224 14.3418 9.70835 13.6918 10.3584C13.0418 11.0084 12.2557 11.3334 11.3335 11.3334H8.66683Z" fill="#4546B9"/>
</svg>
