<svg width="16" height="16" viewBox="0 0 16 16" fill="none" xmlns="http://www.w3.org/2000/svg">
<path d="M3.99984 14.6666C3.63317 14.6666 3.31928 14.5361 3.05817 14.275C2.79706 14.0138 2.6665 13.7 2.6665 13.3333V6.66663C2.6665 6.29996 2.79706 5.98607 3.05817 5.72496C3.31928 5.46385 3.63317 5.33329 3.99984 5.33329H4.6665V3.99996C4.6665 3.07774 4.9915 2.29163 5.6415 1.64163C6.2915 0.991626 7.07762 0.666626 7.99984 0.666626C8.92206 0.666626 9.70817 0.991626 10.3582 1.64163C11.0082 2.29163 11.3332 3.07774 11.3332 3.99996V5.33329H11.9998C12.3665 5.33329 12.6804 5.46385 12.9415 5.72496C13.2026 5.98607 13.3332 6.29996 13.3332 6.66663V13.3333C13.3332 13.7 13.2026 14.0138 12.9415 14.275C12.6804 14.5361 12.3665 14.6666 11.9998 14.6666H3.99984ZM3.99984 13.3333H11.9998V6.66663H3.99984V13.3333ZM7.99984 11.3333C8.3665 11.3333 8.68039 11.2027 8.9415 10.9416C9.20262 10.6805 9.33317 10.3666 9.33317 9.99996C9.33317 9.63329 9.20262 9.3194 8.9415 9.05829C8.68039 8.79718 8.3665 8.66663 7.99984 8.66663C7.63317 8.66663 7.31928 8.79718 7.05817 9.05829C6.79706 9.3194 6.6665 9.63329 6.6665 9.99996C6.6665 10.3666 6.79706 10.6805 7.05817 10.9416C7.31928 11.2027 7.63317 11.3333 7.99984 11.3333ZM5.99984 5.33329H9.99984V3.99996C9.99984 3.4444 9.80539 2.97218 9.4165 2.58329C9.02762 2.1944 8.55539 1.99996 7.99984 1.99996C7.44428 1.99996 6.97206 2.1944 6.58317 2.58329C6.19428 2.97218 5.99984 3.4444 5.99984 3.99996V5.33329Z" fill="#4546B9"/>
</svg>
