<svg width="16" height="16" viewBox="0 0 16 16" fill="none" xmlns="http://www.w3.org/2000/svg">
<path d="M7.38486 11.275C7.12375 11.5361 6.80986 11.6666 6.4432 11.6666C6.07653 11.6666 5.76264 11.5361 5.50153 11.275C5.24042 11.0138 5.10986 10.7 5.10986 10.3333C5.10986 9.96663 5.24042 9.65274 5.50153 9.39163C5.76264 9.13051 6.07653 8.99996 6.4432 8.99996C6.80986 8.99996 7.12375 9.13051 7.38486 9.39163C7.64597 9.65274 7.77653 9.96663 7.77653 10.3333C7.77653 10.7 7.64597 11.0138 7.38486 11.275Z" fill="#4546B9"/>
<path fill-rule="evenodd" clip-rule="evenodd" d="M8.21956 5.66663V4.33333C8.21956 3.41111 8.54456 2.625 9.19456 1.975C9.84456 1.325 10.6307 1 11.5529 1C12.4751 1 13.2612 1.325 13.9112 1.975C14.5612 2.625 14.8862 3.41111 14.8862 4.33333H13.5529C13.5529 3.77778 13.3585 3.30556 12.9696 2.91667C12.5807 2.52778 12.1085 2.33333 11.5529 2.33333C10.9973 2.33333 10.5251 2.52778 10.1362 2.91667C9.74734 3.30556 9.5529 3.77778 9.5529 4.33333V5.66663H10.4432C10.8099 5.66663 11.1238 5.79718 11.3849 6.05829C11.646 6.3194 11.7765 6.63329 11.7765 6.99996V13.6666C11.7765 14.0333 11.646 14.3472 11.3849 14.6083C11.1238 14.8694 10.8099 15 10.4432 15H2.4432C2.07653 15 1.76264 14.8694 1.50153 14.6083C1.24042 14.3472 1.10986 14.0333 1.10986 13.6666V6.99996C1.10986 6.63329 1.24042 6.3194 1.50153 6.05829C1.76264 5.79718 2.07653 5.66663 2.4432 5.66663H8.21956ZM10.4432 6.99996V13.6666H2.4432V6.99996H10.4432Z" fill="#4546B9"/>
</svg>
