<svg width="16" height="16" viewBox="0 0 16 16" fill="none" xmlns="http://www.w3.org/2000/svg">
<path d="M3.33333 14C2.96667 14 2.65278 13.8694 2.39167 13.6083C2.13056 13.3472 2 13.0333 2 12.6667V3.33333C2 2.96667 2.13056 2.65278 2.39167 2.39167C2.65278 2.13056 2.96667 2 3.33333 2H8V3.33333H3.33333V12.6667H12.6667V8H14V12.6667C14 13.0333 13.8694 13.3472 13.6083 13.6083C13.3472 13.8694 13.0333 14 12.6667 14H3.33333ZM6.46667 10.4667L5.53333 9.53333L11.7333 3.33333H9.33333V2H14V6.66667H12.6667V4.26667L6.46667 10.4667Z" fill="#4546B9"/>
</svg>
