<svg width="16" height="16" viewBox="0 0 16 16" fill="none" xmlns="http://www.w3.org/2000/svg">
<g clip-path="url(#clip0_4730_29543)">
<path d="M16 8C16 12.4187 12.4187 16 8 16C3.58125 16 0 12.4187 0 8C0 3.58125 3.58125 0 8 0C12.4187 0 16 3.58125 16 8Z" fill="#A6CE39"/>
<path d="M5.39365 11.6375H4.43115V4.94379H5.39365V7.96879V11.6375Z" fill="white"/>
<path d="M6.80615 4.94379H9.40615C11.8812 4.94379 12.9687 6.71254 12.9687 8.29379C12.9687 10.0125 11.6249 11.6438 9.41865 11.6438H6.80615V4.94379ZM7.76865 10.775H9.2999C11.4812 10.775 11.9812 9.11879 11.9812 8.29379C11.9812 6.95004 11.1249 5.81254 9.2499 5.81254H7.76865V10.775Z" fill="white"/>
<path d="M5.54375 3.55001C5.54375 3.89376 5.2625 4.18126 4.9125 4.18126C4.5625 4.18126 4.28125 3.89376 4.28125 3.55001C4.28125 3.20001 4.5625 2.91876 4.9125 2.91876C5.2625 2.91876 5.54375 3.20626 5.54375 3.55001Z" fill="white"/>
</g>
<defs>
<clipPath id="clip0_4730_29543">
<rect width="16" height="16" fill="white"/>
</clipPath>
</defs>
</svg>
