<svg width="16" height="16" viewBox="0 0 16 16" fill="none" xmlns="http://www.w3.org/2000/svg">
<path d="M11.3335 14.6667C10.7779 14.6667 10.3057 14.4723 9.91683 14.0834C9.52794 13.6945 9.3335 13.2223 9.3335 12.6667C9.3335 12.6 9.35016 12.4445 9.3835 12.2L4.70016 9.46671C4.52239 9.63337 4.31683 9.76393 4.0835 9.85837C3.85016 9.95282 3.60016 10 3.3335 10C2.77794 10 2.30572 9.8056 1.91683 9.41671C1.52794 9.02782 1.3335 8.5556 1.3335 8.00004C1.3335 7.44448 1.52794 6.97226 1.91683 6.58337C2.30572 6.19448 2.77794 6.00004 3.3335 6.00004C3.60016 6.00004 3.85016 6.04726 4.0835 6.14171C4.31683 6.23615 4.52239 6.36671 4.70016 6.53337L9.3835 3.80004C9.36127 3.72226 9.34739 3.64726 9.34183 3.57504C9.33627 3.50282 9.3335 3.42226 9.3335 3.33337C9.3335 2.77782 9.52794 2.3056 9.91683 1.91671C10.3057 1.52782 10.7779 1.33337 11.3335 1.33337C11.8891 1.33337 12.3613 1.52782 12.7502 1.91671C13.1391 2.3056 13.3335 2.77782 13.3335 3.33337C13.3335 3.88893 13.1391 4.36115 12.7502 4.75004C12.3613 5.13893 11.8891 5.33337 11.3335 5.33337C11.0668 5.33337 10.8168 5.28615 10.5835 5.19171C10.3502 5.09726 10.1446 4.96671 9.96683 4.80004L5.2835 7.53337C5.30572 7.61115 5.31961 7.68615 5.32516 7.75837C5.33072 7.8306 5.3335 7.91115 5.3335 8.00004C5.3335 8.08893 5.33072 8.16948 5.32516 8.24171C5.31961 8.31393 5.30572 8.38893 5.2835 8.46671L9.96683 11.2C10.1446 11.0334 10.3502 10.9028 10.5835 10.8084C10.8168 10.7139 11.0668 10.6667 11.3335 10.6667C11.8891 10.6667 12.3613 10.8612 12.7502 11.25C13.1391 11.6389 13.3335 12.1112 13.3335 12.6667C13.3335 13.2223 13.1391 13.6945 12.7502 14.0834C12.3613 14.4723 11.8891 14.6667 11.3335 14.6667ZM11.3335 13.3334C11.5224 13.3334 11.6807 13.2695 11.8085 13.1417C11.9363 13.0139 12.0002 12.8556 12.0002 12.6667C12.0002 12.4778 11.9363 12.3195 11.8085 12.1917C11.6807 12.0639 11.5224 12 11.3335 12C11.1446 12 10.9863 12.0639 10.8585 12.1917C10.7307 12.3195 10.6668 12.4778 10.6668 12.6667C10.6668 12.8556 10.7307 13.0139 10.8585 13.1417C10.9863 13.2695 11.1446 13.3334 11.3335 13.3334ZM3.3335 8.66671C3.52239 8.66671 3.68072 8.60282 3.8085 8.47504C3.93627 8.34726 4.00016 8.18893 4.00016 8.00004C4.00016 7.81115 3.93627 7.65282 3.8085 7.52504C3.68072 7.39726 3.52239 7.33337 3.3335 7.33337C3.14461 7.33337 2.98627 7.39726 2.8585 7.52504C2.73072 7.65282 2.66683 7.81115 2.66683 8.00004C2.66683 8.18893 2.73072 8.34726 2.8585 8.47504C2.98627 8.60282 3.14461 8.66671 3.3335 8.66671ZM11.3335 4.00004C11.5224 4.00004 11.6807 3.93615 11.8085 3.80837C11.9363 3.6806 12.0002 3.52226 12.0002 3.33337C12.0002 3.14449 11.9363 2.98615 11.8085 2.85837C11.6807 2.7306 11.5224 2.66671 11.3335 2.66671C11.1446 2.66671 10.9863 2.7306 10.8585 2.85837C10.7307 2.98615 10.6668 3.14449 10.6668 3.33337C10.6668 3.52226 10.7307 3.6806 10.8585 3.80837C10.9863 3.93615 11.1446 4.00004 11.3335 4.00004Z" fill="#4546B9"/>
</svg>
