<svg aria-hidden="true" style="position:absolute;width:0;height:0" width="16" height="16"
     xmlns="http://www.w3.org/2000/svg" overflow="hidden">
  <defs>

    <!-- FONT AWESOME IMPORTS -->
    <symbol id="fa-users" viewBox="0 0 16 16">
      <svg xmlns="http://www.w3.org/2000/svg" viewBox="0 0 640 512">
        <!--!Font Awesome Free 6.7.2 by @fontawesome - https://fontawesome.com License - https://fontawesome.com/license/free Copyright 2025 Fonticons, Inc.-->
        <path d="M144 0a80 80 0 1 1 0 160A80 80 0 1 1 144 0zM512 0a80 80 0 1 1 0 160A80 80 0 1 1 512 0zM0 298.7C0 239.8 47.8 192 106.7 192l42.7 0c15.9 0 31 3.5 44.6 9.7c-1.3 7.2-1.9 14.7-1.9 22.3c0 38.2 16.8 72.5 43.3 96c-.2 0-.4 0-.7 0L21.3 320C9.6 320 0 310.4 0 298.7zM405.3 320c-.2 0-.4 0-.7 0c26.6-23.5 43.3-57.8 43.3-96c0-7.6-.7-15-1.9-22.3c13.6-6.3 28.7-9.7 44.6-9.7l42.7 0C592.2 192 640 239.8 640 298.7c0 11.8-9.6 21.3-21.3 21.3l-213.3 0zM224 224a96 96 0 1 1 192 0 96 96 0 1 1 -192 0zM128 485.3C128 411.7 187.7 352 261.3 352l117.3 0C452.3 352 512 411.7 512 485.3c0 14.7-11.9 26.7-26.7 26.7l-330.7 0c-14.7 0-26.7-11.9-26.7-26.7z"/>
      </svg>
    </symbol>

    <symbol id="fa-user" viewBox="0 0 16 16">
      <svg xmlns="http://www.w3.org/2000/svg" viewBox="0 0 448 512">
        <!--!Font Awesome Free 6.7.2 by @fontawesome - https://fontawesome.com License - https://fontawesome.com/license/free Copyright 2025 Fonticons, Inc.-->
        <path d="M224 256A128 128 0 1 0 224 0a128 128 0 1 0 0 256zm-45.7 48C79.8 304 0 383.8 0 482.3C0 498.7 13.3 512 29.7 512l388.6 0c16.4 0 29.7-13.3 29.7-29.7C448 383.8 368.2 304 269.7 304l-91.4 0z"/>
      </svg>
    </symbol>

    <symbol id="fa-file-lines" viewBox="0 0 16 16">
      <svg xmlns="http://www.w3.org/2000/svg" viewBox="0 0 384 512">
        <!--!Font Awesome Free 6.7.2 by @fontawesome - https://fontawesome.com License - https://fontawesome.com/license/free Copyright 2025 Fonticons, Inc.-->
        <path d="M64 0C28.7 0 0 28.7 0 64L0 448c0 35.3 28.7 64 64 64l256 0c35.3 0 64-28.7 64-64l0-288-128 0c-17.7 0-32-14.3-32-32L224 0 64 0zM256 0l0 128 128 0L256 0zM112 256l160 0c8.8 0 16 7.2 16 16s-7.2 16-16 16l-160 0c-8.8 0-16-7.2-16-16s7.2-16 16-16zm0 64l160 0c8.8 0 16 7.2 16 16s-7.2 16-16 16l-160 0c-8.8 0-16-7.2-16-16s7.2-16 16-16zm0 64l160 0c8.8 0 16 7.2 16 16s-7.2 16-16 16l-160 0c-8.8 0-16-7.2-16-16s7.2-16 16-16z"/>
      </svg>
    </symbol>

    <symbol id="fa-building-columns" viewBox="0 0 16 16">
      <svg xmlns="http://www.w3.org/2000/svg" viewBox="0 0 512 512">
        <!--!Font Awesome Free 6.7.2 by @fontawesome - https://fontawesome.com License - https://fontawesome.com/license/free Copyright 2025 Fonticons, Inc.-->
        <path d="M243.4 2.6l-224 96c-14 6-21.8 21-18.7 35.8S16.8 160 32 160l0 8c0 13.3 10.7 24 24 24l400 0c13.3 0 24-10.7 24-24l0-8c15.2 0 28.3-10.7 31.3-25.6s-4.8-29.9-18.7-35.8l-224-96c-8-3.4-17.2-3.4-25.2 0zM128 224l-64 0 0 196.3c-.6 .3-1.2 .7-1.8 1.1l-48 32c-11.7 7.8-17 22.4-12.9 35.9S17.9 512 32 512l448 0c14.1 0 26.5-9.2 30.6-22.7s-1.1-28.1-12.9-35.9l-48-32c-.6-.4-1.2-.7-1.8-1.1L448 224l-64 0 0 192-40 0 0-192-64 0 0 192-48 0 0-192-64 0 0 192-40 0 0-192zM256 64a32 32 0 1 1 0 64 32 32 0 1 1 0-64z"/>
      </svg>
    </symbol>

    <symbol id="fa-align-left" viewBox="0 0 16 16">
      <svg xmlns="http://www.w3.org/2000/svg" viewBox="0 0 448 512">
        <!--!Font Awesome Free 6.7.2 by @fontawesome - https://fontawesome.com License - https://fontawesome.com/license/free Copyright 2025 Fonticons, Inc.-->
        <path d="M288 64c0 17.7-14.3 32-32 32L32 96C14.3 96 0 81.7 0 64S14.3 32 32 32l224 0c17.7 0 32 14.3 32 32zm0 256c0 17.7-14.3 32-32 32L32 352c-17.7 0-32-14.3-32-32s14.3-32 32-32l224 0c17.7 0 32 14.3 32 32zM0 192c0-17.7 14.3-32 32-32l384 0c17.7 0 32 14.3 32 32s-14.3 32-32 32L32 224c-17.7 0-32-14.3-32-32zM448 448c0 17.7-14.3 32-32 32L32 480c-17.7 0-32-14.3-32-32s14.3-32 32-32l384 0c17.7 0 32 14.3 32 32z"/>
      </svg>
    </symbol>

    <symbol id="fa-facebook-square" viewBox="0 0 16 16">
      <svg xmlns="http://www.w3.org/2000/svg" viewBox="0 0 448 512">
        <!--!Font Awesome Free 6.7.2 by @fontawesome - https://fontawesome.com License - https://fontawesome.com/license/free Copyright 2025 Fonticons, Inc.-->
        <path d="M64 32C28.7 32 0 60.7 0 96V416c0 35.3 28.7 64 64 64h98.2V334.2H109.4V256h52.8V222.3c0-87.1 39.4-127.5 125-127.5c16.2 0 44.2 3.2 55.7 6.4V172c-6-.6-16.5-1-29.6-1c-42 0-58.2 15.9-58.2 57.2V256h83.6l-14.4 78.2H255V480H384c35.3 0 64-28.7 64-64V96c0-35.3-28.7-64-64-64H64z"/>
      </svg>
    </symbol>

    <svg id="fa-linkedin" xmlns="http://www.w3.org/2000/svg" viewBox="0 0 448 512">
      <!--!Font Awesome Free 6.7.2 by @fontawesome - https://fontawesome.com License - https://fontawesome.com/license/free Copyright 2025 Fonticons, Inc.-->
      <path d="M416 32H31.9C14.3 32 0 46.5 0 64.3v383.4C0 465.5 14.3 480 31.9 480H416c17.6 0 32-14.5 32-32.3V64.3c0-17.8-14.4-32.3-32-32.3zM135.4 416H69V202.2h66.5V416zm-33.2-243c-21.3 0-38.5-17.3-38.5-38.5S80.9 96 102.2 96c21.2 0 38.5 17.3 38.5 38.5 0 21.3-17.2 38.5-38.5 38.5zm282.1 243h-66.4V312c0-24.8-.5-56.7-34.5-56.7-34.6 0-39.9 27-39.9 54.9V416h-66.4V202.2h63.7v29.2h.9c8.9-16.8 30.6-34.5 62.9-34.5 67.2 0 79.7 44.3 79.7 101.9V416z"/>
    </svg>

    <svg id="fa-x-twitter-square" xmlns="http://www.w3.org/2000/svg" viewBox="0 0 448 512">
      <!--!Font Awesome Free 6.7.2 by @fontawesome - https://fontawesome.com License - https://fontawesome.com/license/free Copyright 2025 Fonticons, Inc.-->
      <path d="M64 32C28.7 32 0 60.7 0 96V416c0 35.3 28.7 64 64 64H384c35.3 0 64-28.7 64-64V96c0-35.3-28.7-64-64-64H64zm297.1 84L257.3 234.6 379.4 396H283.8L209 298.1 123.3 396H75.8l111-126.9L69.7 116h98l67.7 89.5L313.6 116h47.5zM323.3 367.6L153.4 142.9H125.1L296.9 367.6h26.3z"/>
    </svg>

    <symbol id="fa-twitter" viewBox="0 0 16 16">
      <svg xmlns="http://www.w3.org/2000/svg" viewBox="0 0 512 512">
        <!--!Font Awesome Free 6.7.2 by @fontawesome - https://fontawesome.com License - https://fontawesome.com/license/free Copyright 2025 Fonticons, Inc.-->
        <path d="M459.4 151.7c.3 4.5 .3 9.1 .3 13.6 0 138.7-105.6 298.6-298.6 298.6-59.5 0-114.7-17.2-161.1-47.1 8.4 1 16.6 1.3 25.3 1.3 49.1 0 94.2-16.6 130.3-44.8-46.1-1-84.8-31.2-98.1-72.8 6.5 1 13 1.6 19.8 1.6 9.4 0 18.8-1.3 27.6-3.6-48.1-9.7-84.1-52-84.1-103v-1.3c14 7.8 30.2 12.7 47.4 13.3-28.3-18.8-46.8-51-46.8-87.4 0-19.5 5.2-37.4 14.3-53 51.7 63.7 129.3 105.3 216.4 109.8-1.6-7.8-2.6-15.9-2.6-24 0-57.8 46.8-104.9 104.9-104.9 30.2 0 57.5 12.7 76.7 33.1 23.7-4.5 46.5-13.3 66.6-25.3-7.8 24.4-24.4 44.8-46.1 57.8 21.1-2.3 41.6-8.1 60.4-16.2-14.3 20.8-32.2 39.3-52.6 54.3z"/>
      </svg>
    </symbol>

    <symbol id="fa-envelope" viewBox="0 0 16 16">
      <svg xmlns="http://www.w3.org/2000/svg" viewBox="0 0 512 512">
        <!--!Font Awesome Free 6.7.2 by @fontawesome - https://fontawesome.com License - https://fontawesome.com/license/free Copyright 2025 Fonticons, Inc.-->
        <path d="M48 64C21.5 64 0 85.5 0 112c0 15.1 7.1 29.3 19.2 38.4L236.8 313.6c11.4 8.5 27 8.5 38.4 0L492.8 150.4c12.1-9.1 19.2-23.3 19.2-38.4c0-26.5-21.5-48-48-48L48 64zM0 176L0 384c0 35.3 28.7 64 64 64l384 0c35.3 0 64-28.7 64-64l0-208L294.4 339.2c-22.8 17.1-54 17.1-76.8 0L0 176z"/>
      </svg>
    </symbol>

    <svg id="fa-user-lock" xmlns="http://www.w3.org/2000/svg" viewBox="0 0 640 512">
      <!--!Font Awesome Free 6.7.2 by @fontawesome - https://fontawesome.com License - https://fontawesome.com/license/free Copyright 2025 Fonticons, Inc.-->
      <path d="M224 256A128 128 0 1 0 224 0a128 128 0 1 0 0 256zm-45.7 48C79.8 304 0 383.8 0 482.3C0 498.7 13.3 512 29.7 512l362.8 0c-5.4-9.4-8.6-20.3-8.6-32l0-128c0-2.1 .1-4.2 .3-6.3c-31-26-71-41.7-114.6-41.7l-91.4 0zM528 240c17.7 0 32 14.3 32 32l0 48-64 0 0-48c0-17.7 14.3-32 32-32zm-80 32l0 48c-17.7 0-32 14.3-32 32l0 128c0 17.7 14.3 32 32 32l160 0c17.7 0 32-14.3 32-32l0-128c0-17.7-14.3-32-32-32l0-48c0-44.2-35.8-80-80-80s-80 35.8-80 80z"/>
    </svg>

    <svg id="fa-user-check" xmlns="http://www.w3.org/2000/svg" viewBox="0 0 640 512">
      <!--!Font Awesome Free 6.7.2 by @fontawesome - https://fontawesome.com License - https://fontawesome.com/license/free Copyright 2025 Fonticons, Inc.-->
      <path d="M96 128a128 128 0 1 1 256 0A128 128 0 1 1 96 128zM0 482.3C0 383.8 79.8 304 178.3 304l91.4 0C368.2 304 448 383.8 448 482.3c0 16.4-13.3 29.7-29.7 29.7L29.7 512C13.3 512 0 498.7 0 482.3zM625 177L497 305c-9.4 9.4-24.6 9.4-33.9 0l-64-64c-9.4-9.4-9.4-24.6 0-33.9s24.6-9.4 33.9 0l47 47L591 143c9.4-9.4 24.6-9.4 33.9 0s9.4 24.6 0 33.9z"/>
    </svg>

    <svg id="fa-eye" xmlns="http://www.w3.org/2000/svg" viewBox="0 0 576 512">
      <!--!Font Awesome Free 6.7.2 by @fontawesome - https://fontawesome.com License - https://fontawesome.com/license/free Copyright 2025 Fonticons, Inc.-->
      <path d="M288 32c-80.8 0-145.5 36.8-192.6 80.6C48.6 156 17.3 208 2.5 243.7c-3.3 7.9-3.3 16.7 0 24.6C17.3 304 48.6 356 95.4 399.4C142.5 443.2 207.2 480 288 480s145.5-36.8 192.6-80.6c46.8-43.5 78.1-95.4 93-131.1c3.3-7.9 3.3-16.7 0-24.6c-14.9-35.7-46.2-87.7-93-131.1C433.5 68.8 368.8 32 288 32zM144 256a144 144 0 1 1 288 0 144 144 0 1 1 -288 0zm144-64c0 35.3-28.7 64-64 64c-7.1 0-13.9-1.2-20.3-3.3c-5.5-1.8-11.9 1.6-11.7 7.4c.3 6.9 1.3 13.8 3.2 20.7c13.7 51.2 66.4 81.6 117.6 67.9s81.6-66.4 67.9-117.6c-11.1-41.5-47.8-69.4-88.6-71.1c-5.8-.2-9.2 6.1-7.4 11.7c2.1 6.4 3.3 13.2 3.3 20.3z"/>
    </svg>

    <svg id="fa-share-alt-square" xmlns="http://www.w3.org/2000/svg" viewBox="0 0 448 512">
      <!--!Font Awesome Free 6.7.2 by @fontawesome - https://fontawesome.com License - https://fontawesome.com/license/free Copyright 2025 Fonticons, Inc.-->
      <path d="M448 80v352c0 26.5-21.5 48-48 48H48c-26.5 0-48-21.5-48-48V80c0-26.5 21.5-48 48-48h352c26.5 0 48 21.5 48 48zM304 296c-14.6 0-27.8 5.6-37.8 14.7l-68-40.8a56.3 56.3 0 0 0 0-27.8l68-40.8C276.2 210.4 289.4 216 304 216c30.9 0 56-25.1 56-56s-25.1-56-56-56-56 25.1-56 56c0 4.8 .6 9.5 1.7 13.9l-68 40.8C171.8 205.6 158.6 200 144 200c-30.9 0-56 25.1-56 56s25.1 56 56 56c14.6 0 27.8-5.6 37.8-14.7l68 40.8a56.1 56.1 0 0 0 -1.7 13.9c0 30.9 25.1 56 56 56s56-25.1 56-56C360 321.1 334.9 296 304 296z"/>
    </svg>

    <svg id="fa-check-square" xmlns="http://www.w3.org/2000/svg" viewBox="0 0 448 512">
      <!--!Font Awesome Free 6.7.2 by @fontawesome - https://fontawesome.com License - https://fontawesome.com/license/free Copyright 2025 Fonticons, Inc.-->
      <path d="M64 32C28.7 32 0 60.7 0 96L0 416c0 35.3 28.7 64 64 64l320 0c35.3 0 64-28.7 64-64l0-320c0-35.3-28.7-64-64-64L64 32zM337 209L209 337c-9.4 9.4-24.6 9.4-33.9 0l-64-64c-9.4-9.4-9.4-24.6 0-33.9s24.6-9.4 33.9 0l47 47L303 175c9.4-9.4 24.6-9.4 33.9 0s9.4 24.6 0 33.9z"/>
    </svg>

    <svg id="fa-check-square" xmlns="http://www.w3.org/2000/svg" viewBox="0 0 448 512">
      <!--!Font Awesome Free 6.7.2 by @fontawesome - https://fontawesome.com License - https://fontawesome.com/license/free Copyright 2025 Fonticons, Inc.-->
      <path d="M64 32C28.7 32 0 60.7 0 96L0 416c0 35.3 28.7 64 64 64l320 0c35.3 0 64-28.7 64-64l0-320c0-35.3-28.7-64-64-64L64 32zM337 209L209 337c-9.4 9.4-24.6 9.4-33.9 0l-64-64c-9.4-9.4-9.4-24.6 0-33.9s24.6-9.4 33.9 0l47 47L303 175c9.4-9.4 24.6-9.4 33.9 0s9.4 24.6 0 33.9z"/>
    </svg>

    <svg id="fa-handshake" xmlns="http://www.w3.org/2000/svg" viewBox="0 0 640 512">
      <!--!Font Awesome Free 6.7.2 by @fontawesome - https://fontawesome.com License - https://fontawesome.com/license/free Copyright 2025 Fonticons, Inc.-->
      <path d="M323.4 85.2l-96.8 78.4c-16.1 13-19.2 36.4-7 53.1c12.9 17.8 38 21.3 55.3 7.8l99.3-77.2c7-5.4 17-4.2 22.5 2.8s4.2 17-2.8 22.5l-20.9 16.2L512 316.8 512 128l-.7 0-3.9-2.5L434.8 79c-15.3-9.8-33.2-15-51.4-15c-21.8 0-43 7.5-60 21.2zm22.8 124.4l-51.7 40.2C263 274.4 217.3 268 193.7 235.6c-22.2-30.5-16.6-73.1 12.7-96.8l83.2-67.3c-11.6-4.9-24.1-7.4-36.8-7.4C234 64 215.7 69.6 200 80l-72 48 0 224 28.2 0 91.4 83.4c19.6 17.9 49.9 16.5 67.8-3.1c5.5-6.1 9.2-13.2 11.1-20.6l17 15.6c19.5 17.9 49.9 16.6 67.8-2.9c4.5-4.9 7.8-10.6 9.9-16.5c19.4 13 45.8 10.3 62.1-7.5c17.9-19.5 16.6-49.9-2.9-67.8l-134.2-123zM16 128c-8.8 0-16 7.2-16 16L0 352c0 17.7 14.3 32 32 32l32 0c17.7 0 32-14.3 32-32l0-224-80 0zM48 320a16 16 0 1 1 0 32 16 16 0 1 1 0-32zM544 128l0 224c0 17.7 14.3 32 32 32l32 0c17.7 0 32-14.3 32-32l0-208c0-8.8-7.2-16-16-16l-80 0zm32 208a16 16 0 1 1 32 0 16 16 0 1 1 -32 0z"/>
    </svg>

    <svg id="fa-file-alt" xmlns="http://www.w3.org/2000/svg" viewBox="0 0 384 512">
      <!--!Font Awesome Free 6.7.2 by @fontawesome - https://fontawesome.com License - https://fontawesome.com/license/free Copyright 2025 Fonticons, Inc.-->
      <path d="M288 248v28c0 6.6-5.4 12-12 12H108c-6.6 0-12-5.4-12-12v-28c0-6.6 5.4-12 12-12h168c6.6 0 12 5.4 12 12zm-12 72H108c-6.6 0-12 5.4-12 12v28c0 6.6 5.4 12 12 12h168c6.6 0 12-5.4 12-12v-28c0-6.6-5.4-12-12-12zm108-188.1V464c0 26.5-21.5 48-48 48H48c-26.5 0-48-21.5-48-48V48C0 21.5 21.5 0 48 0h204.1C264.8 0 277 5.1 286 14.1L369.9 98c9 8.9 14.1 21.2 14.1 33.9zm-128-80V128h76.1L256 51.9zM336 464V176H232c-13.3 0-24-10.7-24-24V48H48v416h288z"/>
    </svg>

    <symbol id="fa-arrow-right" viewBox="0 0 16 16">
      <svg xmlns="http://www.w3.org/2000/svg" viewBox="0 0 448 512">
        <!--!Font Awesome Free 6.7.2 by @fontawesome - https://fontawesome.com License - https://fontawesome.com/license/free Copyright 2025 Fonticons, Inc.-->
        <path d="M438.6 278.6c12.5-12.5 12.5-32.8 0-45.3l-160-160c-12.5-12.5-32.8-12.5-45.3 0s-12.5 32.8 0 45.3L338.8 224 32 224c-17.7 0-32 14.3-32 32s14.3 32 32 32l306.7 0L233.4 393.4c-12.5 12.5-12.5 32.8 0 45.3s32.8 12.5 45.3 0l160-160z"/>
      </svg>
    </symbol>

    <symbol id="fa-arrow-left" viewBox="0 0 16 16">
      <svg xmlns="http://www.w3.org/2000/svg" viewBox="0 0 448 512">
        <!--!Font Awesome Free 6.7.2 by @fontawesome - https://fontawesome.com License - https://fontawesome.com/license/free Copyright 2025 Fonticons, Inc.-->
        <path d="M9.4 233.4c-12.5 12.5-12.5 32.8 0 45.3l160 160c12.5 12.5 32.8 12.5 45.3 0s12.5-32.8 0-45.3L109.2 288 416 288c17.7 0 32-14.3 32-32s-14.3-32-32-32l-306.7 0L214.6 118.6c12.5-12.5 12.5-32.8 0-45.3s-32.8-12.5-45.3 0l-160 160z"/>
      </svg>
    </symbol>

    <symbol id="fa-chart-bar" viewBox="0 0 16 16">
      <svg xmlns="http://www.w3.org/2000/svg" viewBox="0 0 512 512">
        <!--!Font Awesome Free 6.7.2 by @fontawesome - https://fontawesome.com License - https://fontawesome.com/license/free Copyright 2025 Fonticons, Inc.-->
        <path d="M332.8 320h38.4c6.4 0 12.8-6.4 12.8-12.8V172.8c0-6.4-6.4-12.8-12.8-12.8h-38.4c-6.4 0-12.8 6.4-12.8 12.8v134.4c0 6.4 6.4 12.8 12.8 12.8zm96 0h38.4c6.4 0 12.8-6.4 12.8-12.8V76.8c0-6.4-6.4-12.8-12.8-12.8h-38.4c-6.4 0-12.8 6.4-12.8 12.8v230.4c0 6.4 6.4 12.8 12.8 12.8zm-288 0h38.4c6.4 0 12.8-6.4 12.8-12.8v-70.4c0-6.4-6.4-12.8-12.8-12.8h-38.4c-6.4 0-12.8 6.4-12.8 12.8v70.4c0 6.4 6.4 12.8 12.8 12.8zm96 0h38.4c6.4 0 12.8-6.4 12.8-12.8V108.8c0-6.4-6.4-12.8-12.8-12.8h-38.4c-6.4 0-12.8 6.4-12.8 12.8v198.4c0 6.4 6.4 12.8 12.8 12.8zM496 384H64V80c0-8.8-7.2-16-16-16H16C7.2 64 0 71.2 0 80v336c0 17.7 14.3 32 32 32h464c8.8 0 16-7.2 16-16v-32c0-8.8-7.2-16-16-16z"/>
      </svg>
    </symbol>

    <symbol id="fa-quote" viewBox="0 0 16 16">
      <svg xmlns="http://www.w3.org/2000/svg" viewBox="0 0 448 512">
        <!--!Font Awesome Free 6.7.2 by @fontawesome - https://fontawesome.com License - https://fontawesome.com/license/free Copyright 2025 Fonticons, Inc.-->
        <path d="M448 296c0 66.3-53.7 120-120 120l-8 0c-17.7 0-32-14.3-32-32s14.3-32 32-32l8 0c30.9 0 56-25.1 56-56l0-8-64 0c-35.3 0-64-28.7-64-64l0-64c0-35.3 28.7-64 64-64l64 0c35.3 0 64 28.7 64 64l0 32 0 32 0 72zm-256 0c0 66.3-53.7 120-120 120l-8 0c-17.7 0-32-14.3-32-32s14.3-32 32-32l8 0c30.9 0 56-25.1 56-56l0-8-64 0c-35.3 0-64-28.7-64-64l0-64c0-35.3 28.7-64 64-64l64 0c35.3 0 64 28.7 64 64l0 32 0 32 0 72z"/>
      </svg>
    </symbol>

    <svg id="fa-undo-alt" xmlns="http://www.w3.org/2000/svg" viewBox="0 0 512 512">
      <!--!Font Awesome Free 6.7.2 by @fontawesome - https://fontawesome.com License - https://fontawesome.com/license/free Copyright 2025 Fonticons, Inc.-->
      <path d="M255.5 8c-66.3 .1-126.4 26.2-170.9 68.7L49 41C33.9 25.9 8 36.6 8 57.9V192c0 13.3 10.7 24 24 24h134.1c21.4 0 32.1-25.9 17-41l-41.8-41.8c30.9-28.9 70.8-44.9 113.2-45.3 92.4-.8 170.3 74 169.5 169.4C423.2 348 349.8 424 256 424c-41.1 0-80-14.7-110.6-41.6-4.7-4.2-11.9-3.9-16.4 .6L89.3 422.7c-4.9 4.9-4.6 12.8 .5 17.4C133.8 479.8 192.1 504 256 504c137 0 248-111 248-248C504 119.2 392.4 7.8 255.5 8z"/>
    </svg>

    <symbol id="sliders" viewBox="0 0 16 16">
      <svg xmlns="http://www.w3.org/2000/svg" viewBox="0 0 512 512">
        <!--!Font Awesome Free 6.7.2 by @fontawesome - https://fontawesome.com License - https://fontawesome.com/license/free Copyright 2025 Fonticons, Inc.-->
        <path d="M496 384H160v-16c0-8.8-7.2-16-16-16h-32c-8.8 0-16 7.2-16 16v16H16c-8.8 0-16 7.2-16 16v32c0 8.8 7.2 16 16 16h80v16c0 8.8 7.2 16 16 16h32c8.8 0 16-7.2 16-16v-16h336c8.8 0 16-7.2 16-16v-32c0-8.8-7.2-16-16-16zm0-160h-80v-16c0-8.8-7.2-16-16-16h-32c-8.8 0-16 7.2-16 16v16H16c-8.8 0-16 7.2-16 16v32c0 8.8 7.2 16 16 16h336v16c0 8.8 7.2 16 16 16h32c8.8 0 16-7.2 16-16v-16h80c8.8 0 16-7.2 16-16v-32c0-8.8-7.2-16-16-16zm0-160H288V48c0-8.8-7.2-16-16-16h-32c-8.8 0-16 7.2-16 16v16H16C7.2 64 0 71.2 0 80v32c0 8.8 7.2 16 16 16h208v16c0 8.8 7.2 16 16 16h32c8.8 0 16-7.2 16-16v-16h208c8.8 0 16-7.2 16-16V80c0-8.8-7.2-16-16-16z"/>
      </svg>
    </symbol>

    <symbol id="hospital" viewBox="0 0 16 16">
      <svg xmlns="http://www.w3.org/2000/svg" viewBox="0 0 448 512">
        <!--!Font Awesome Free 6.7.2 by @fontawesome - https://fontawesome.com License - https://fontawesome.com/license/free Copyright 2025 Fonticons, Inc.-->
        <path d="M448 492v20H0v-20c0-6.6 5.4-12 12-12h20V120c0-13.3 10.7-24 24-24h88V24c0-13.3 10.7-24 24-24h112c13.3 0 24 10.7 24 24v72h88c13.3 0 24 10.7 24 24v360h20c6.6 0 12 5.4 12 12zM308 192h-40c-6.6 0-12 5.4-12 12v40c0 6.6 5.4 12 12 12h40c6.6 0 12-5.4 12-12v-40c0-6.6-5.4-12-12-12zm-168 64h40c6.6 0 12-5.4 12-12v-40c0-6.6-5.4-12-12-12h-40c-6.6 0-12 5.4-12 12v40c0 6.6 5.4 12 12 12zm104 128h-40c-6.6 0-12 5.4-12 12v84h64v-84c0-6.6-5.4-12-12-12zm64-96h-40c-6.6 0-12 5.4-12 12v40c0 6.6 5.4 12 12 12h40c6.6 0 12-5.4 12-12v-40c0-6.6-5.4-12-12-12zm-116 12c0-6.6-5.4-12-12-12h-40c-6.6 0-12 5.4-12 12v40c0 6.6 5.4 12 12 12h40c6.6 0 12-5.4 12-12v-40zM182 96h26v26a6 6 0 0 0 6 6h20a6 6 0 0 0 6-6V96h26a6 6 0 0 0 6-6V70a6 6 0 0 0 -6-6h-26V38a6 6 0 0 0 -6-6h-20a6 6 0 0 0 -6 6v26h-26a6 6 0 0 0 -6 6v20a6 6 0 0 0 6 6z"/>
      </svg>
    </symbol>

    <symbol id="building" viewBox="0 0 16 16">
      <svg xmlns="http://www.w3.org/2000/svg" viewBox="0 0 384 512">
        <!--!Font Awesome Free 6.7.2 by @fontawesome - https://fontawesome.com License - https://fontawesome.com/license/free Copyright 2025 Fonticons, Inc.-->
        <path d="M48 0C21.5 0 0 21.5 0 48L0 464c0 26.5 21.5 48 48 48l96 0 0-80c0-26.5 21.5-48 48-48s48 21.5 48 48l0 80 96 0c26.5 0 48-21.5 48-48l0-416c0-26.5-21.5-48-48-48L48 0zM64 240c0-8.8 7.2-16 16-16l32 0c8.8 0 16 7.2 16 16l0 32c0 8.8-7.2 16-16 16l-32 0c-8.8 0-16-7.2-16-16l0-32zm112-16l32 0c8.8 0 16 7.2 16 16l0 32c0 8.8-7.2 16-16 16l-32 0c-8.8 0-16-7.2-16-16l0-32c0-8.8 7.2-16 16-16zm80 16c0-8.8 7.2-16 16-16l32 0c8.8 0 16 7.2 16 16l0 32c0 8.8-7.2 16-16 16l-32 0c-8.8 0-16-7.2-16-16l0-32zM80 96l32 0c8.8 0 16 7.2 16 16l0 32c0 8.8-7.2 16-16 16l-32 0c-8.8 0-16-7.2-16-16l0-32c0-8.8 7.2-16 16-16zm80 16c0-8.8 7.2-16 16-16l32 0c8.8 0 16 7.2 16 16l0 32c0 8.8-7.2 16-16 16l-32 0c-8.8 0-16-7.2-16-16l0-32zM272 96l32 0c8.8 0 16 7.2 16 16l0 32c0 8.8-7.2 16-16 16l-32 0c-8.8 0-16-7.2-16-16l0-32c0-8.8 7.2-16 16-16z"/>
      </svg>
    </symbol>

    <symbol id="euro-sign" viewBox="0 0 16 16">
      <svg xmlns="http://www.w3.org/2000/svg" viewBox="0 0 320 512">
        <!--!Font Awesome Free 6.7.2 by @fontawesome - https://fontawesome.com License - https://fontawesome.com/license/free Copyright 2025 Fonticons, Inc.-->
        <path d="M48.1 240c-.1 2.7-.1 5.3-.1 8l0 16c0 2.7 0 5.3 .1 8L32 272c-17.7 0-32 14.3-32 32s14.3 32 32 32l28.3 0C89.9 419.9 170 480 264 480l24 0c17.7 0 32-14.3 32-32s-14.3-32-32-32l-24 0c-57.9 0-108.2-32.4-133.9-80L256 336c17.7 0 32-14.3 32-32s-14.3-32-32-32l-143.8 0c-.1-2.6-.2-5.3-.2-8l0-16c0-2.7 .1-5.4 .2-8L256 240c17.7 0 32-14.3 32-32s-14.3-32-32-32l-125.9 0c25.7-47.6 76-80 133.9-80l24 0c17.7 0 32-14.3 32-32s-14.3-32-32-32l-24 0C170 32 89.9 92.1 60.3 176L32 176c-17.7 0-32 14.3-32 32s14.3 32 32 32l16.1 0z"/>
      </svg>
    </symbol>


    <symbol id="landmark" viewBox="0 0 16 16">
      <svg xmlns="http://www.w3.org/2000/svg" viewBox="0 0 512 512">
        <!--!Font Awesome Free 6.7.2 by @fontawesome - https://fontawesome.com License - https://fontawesome.com/license/free Copyright 2025 Fonticons, Inc.-->
        <path d="M240.1 4.2c9.8-5.6 21.9-5.6 31.8 0l171.8 98.1L448 104l0 .9 47.9 27.4c12.6 7.2 18.8 22 15.1 36s-16.4 23.8-30.9 23.8L32 192c-14.5 0-27.2-9.8-30.9-23.8s2.5-28.8 15.1-36L64 104.9l0-.9 4.4-1.6L240.1 4.2zM64 224l64 0 0 192 40 0 0-192 64 0 0 192 48 0 0-192 64 0 0 192 40 0 0-192 64 0 0 196.3c.6 .3 1.2 .7 1.8 1.1l48 32c11.7 7.8 17 22.4 12.9 35.9S494.1 512 480 512L32 512c-14.1 0-26.5-9.2-30.6-22.7s1.1-28.1 12.9-35.9l48-32c.6-.4 1.2-.7 1.8-1.1L64 224z"/>
      </svg>
    </symbol>

    <symbol id="copy" viewBox="0 0 16 16">
      <svg xmlns="http://www.w3.org/2000/svg" viewBox="0 0 448 512">
        <!--!Font Awesome Free 6.7.2 by @fontawesome - https://fontawesome.com License - https://fontawesome.com/license/free Copyright 2025 Fonticons, Inc.-->
        <path d="M208 0L332.1 0c12.7 0 24.9 5.1 33.9 14.1l67.9 67.9c9 9 14.1 21.2 14.1 33.9L448 336c0 26.5-21.5 48-48 48l-192 0c-26.5 0-48-21.5-48-48l0-288c0-26.5 21.5-48 48-48zM48 128l80 0 0 64-64 0 0 256 192 0 0-32 64 0 0 48c0 26.5-21.5 48-48 48L48 512c-26.5 0-48-21.5-48-48L0 176c0-26.5 21.5-48 48-48z"/>
      </svg>
    </symbol>

    <symbol id="fa-angle-double-left" viewBox="0 0 16 16">
      <svg xmlns="http://www.w3.org/2000/svg" viewBox="0 0 448 512">
        <!--!Font Awesome Free 6.7.2 by @fontawesome - https://fontawesome.com License - https://fontawesome.com/license/free Copyright 2025 Fonticons, Inc.-->
        <path d="M223.7 239l136-136c9.4-9.4 24.6-9.4 33.9 0l22.6 22.6c9.4 9.4 9.4 24.6 0 33.9L319.9 256l96.4 96.4c9.4 9.4 9.4 24.6 0 33.9L393.7 409c-9.4 9.4-24.6 9.4-33.9 0l-136-136c-9.5-9.4-9.5-24.6-.1-34zm-192 34l136 136c9.4 9.4 24.6 9.4 33.9 0l22.6-22.6c9.4-9.4 9.4-24.6 0-33.9L127.9 256l96.4-96.4c9.4-9.4 9.4-24.6 0-33.9L201.7 103c-9.4-9.4-24.6-9.4-33.9 0l-136 136c-9.5 9.4-9.5 24.6-.1 34z"/>
      </svg>
    </symbol>

    <symbol id="fa-angle-double-right" viewBox="0 0 16 16">
      <svg xmlns="http://www.w3.org/2000/svg" viewBox="0 0 448 512">
        <!--!Font Awesome Free 6.7.2 by @fontawesome - https://fontawesome.com License - https://fontawesome.com/license/free Copyright 2025 Fonticons, Inc.-->
        <path d="M224.3 273l-136 136c-9.4 9.4-24.6 9.4-33.9 0l-22.6-22.6c-9.4-9.4-9.4-24.6 0-33.9l96.4-96.4-96.4-96.4c-9.4-9.4-9.4-24.6 0-33.9L54.3 103c9.4-9.4 24.6-9.4 33.9 0l136 136c9.5 9.4 9.5 24.6 .1 34zm192-34l-136-136c-9.4-9.4-24.6-9.4-33.9 0l-22.6 22.6c-9.4 9.4-9.4 24.6 0 33.9l96.4 96.4-96.4 96.4c-9.4 9.4-9.4 24.6 0 33.9l22.6 22.6c9.4 9.4 24.6 9.4 33.9 0l136-136c9.4-9.2 9.4-24.4 0-33.8z"/>
      </svg>
    </symbol>

    <!-- MAIN CATEGORY ICONS -->
    <symbol id="work" viewBox="0 0 16 16">
      <path fill-rule="evenodd" clip-rule="evenodd"
            d="M1.725 13.608c.26.261.575.392.941.392h10.667c.367 0 .68-.13.942-.392.26-.26.391-.575.391-.941V5.333c0-.366-.13-.68-.391-.941A1.284 1.284 0 0 0 13.333 4h-2.667V2.667c0-.367-.13-.68-.391-.942a1.284 1.284 0 0 0-.942-.392H6.666c-.366 0-.68.13-.941.392a1.284 1.284 0 0 0-.392.942V4H2.666c-.366 0-.68.13-.941.392a1.284 1.284 0 0 0-.392.941v7.334c0 .366.13.68.392.941Zm11.608-.941H2.666V9.25H5.5v2h5v-2h2.833v3.417Zm0-4.667H2.666V5.333h10.667V8Zm-4-4H6.666V2.667h2.667V4ZM6.75 10v-.75h2.5V10h-2.5Z"
            fill="currentcolor"/>
    </symbol>
    <symbol id="group" viewBox="0 0 16 16">
      <path
              d="M0 12v-1.05c0-.478.244-.867.733-1.167.49-.3 1.134-.45 1.934-.45.144 0 .283.003.416.009.134.005.261.02.384.041A2.732 2.732 0 0 0 3 10.916V12H0Zm4 0v-1.083c0-.356.097-.68.292-.975.194-.295.47-.553.825-.775.355-.223.78-.39 1.275-.5A7.331 7.331 0 0 1 8 8.5c.589 0 1.13.056 1.625.167.494.11.92.277 1.275.5.356.222.628.48.817.775.189.294.283.62.283.975V12H4Zm9 0v-1.083c0-.29-.036-.561-.108-.817a2.614 2.614 0 0 0-.325-.717c.122-.022.247-.036.375-.041.127-.006.258-.009.391-.009.8 0 1.445.148 1.934.442.489.294.733.686.733 1.175V12h-3Zm-7.583-1.333H10.6c-.111-.223-.42-.417-.925-.584A5.327 5.327 0 0 0 8 9.833c-.611 0-1.17.084-1.675.25-.506.167-.808.361-.908.584Zm-2.75-2c-.367 0-.68-.13-.942-.392a1.284 1.284 0 0 1-.392-.942c0-.377.13-.694.392-.95C1.986 6.128 2.3 6 2.667 6c.377 0 .694.128.95.383.255.256.383.573.383.95 0 .367-.128.68-.383.942a1.276 1.276 0 0 1-.95.392Zm10.666 0c-.366 0-.68-.13-.941-.392A1.284 1.284 0 0 1 12 7.333c0-.377.13-.694.392-.95.26-.255.575-.383.941-.383.378 0 .695.128.95.383.256.256.384.573.384.95 0 .367-.128.68-.384.942a1.276 1.276 0 0 1-.95.392ZM8 8a1.929 1.929 0 0 1-1.417-.583A1.929 1.929 0 0 1 6 6c0-.567.194-1.042.583-1.425A1.943 1.943 0 0 1 8 4c.567 0 1.042.192 1.425.575.383.383.575.858.575 1.425 0 .556-.192 1.028-.575 1.417C9.042 7.806 8.567 8 8 8Zm0-1.333a.645.645 0 0 0 .475-.192A.645.645 0 0 0 8.667 6a.645.645 0 0 0-.192-.475A.645.645 0 0 0 8 5.333a.645.645 0 0 0-.475.192.645.645 0 0 0-.192.475c0 .189.064.347.192.475A.645.645 0 0 0 8 6.667Z"
              fill="currentcolor"/>
    </symbol>
    <symbol id="chart" viewBox="0 0 16 16">
      <path fill-rule="evenodd" clip-rule="evenodd"
            d="M5.413 12.801h5.174c.11 0 .215-.044.292-.124A.428.428 0 0 0 11 12.38v-5.29a.428.428 0 0 0-.12-.3.408.408 0 0 0-.293-.123H5.413a.408.408 0 0 0-.292.124.428.428 0 0 0-.121.299v5.29c0 .112.043.219.12.298.078.08.183.124.293.124ZM5.75 7.5v1h2v-1h-2Zm2.5 0v1h2v-1h-2Zm-2.5 2.75v-1h2v1h-2Zm2.5-1v1h2v-1h-2ZM5.75 12v-1h2v1h-2Zm2.5-1v1h2v-1h-2Z"
            fill="currentcolor"/>
      <path fill-rule="evenodd" clip-rule="evenodd"
            d="M2.904 14.589c.27.274.593.411.971.411h8.25c.378 0 .702-.137.971-.411a1.36 1.36 0 0 0 .404-.989V5.2L9.375 1h-5.5c-.378 0-.702.137-.971.411A1.36 1.36 0 0 0 2.5 2.4v11.2c0 .385.135.715.404.989ZM8.688 2.4v3.5h3.437v7.7h-8.25V2.4h4.813Z"
            fill="currentcolor"/>
    </symbol>
    <symbol id="organisation" viewBox="0 0 16 16">
      <path d="M1.25 13h13v1.5h-13V13Z" fill="currentcolor"/>
      <path
              d="M1.25 13h13.5v1.5H1.25V13ZM2.75 7h1.5v6h-1.5V7ZM11.75 7h1.5v6h-1.5V7ZM5.75 7h1.5v6h-1.5V7ZM8.75 7h1.5v6h-1.5V7Z"
              fill="currentcolor"/>
      <path fill-rule="evenodd" clip-rule="evenodd"
            d="M1.25 4.5V6h13.5V4.5l-7-3-6.5 3Zm6.5.5a1 1 0 1 0 0-2 1 1 0 0 0 0 2Z"
            fill="currentcolor"/>
    </symbol>
    <symbol id="megaphone" viewBox="0 0 16 16">
      <path fill-rule="evenodd" clip-rule="evenodd"
            d="m6.956 9.239 6.033 2.04c.736.249 1.511-.268 1.511-1.008v-8.2c0-.74-.774-1.257-1.51-1.008l-6.034 2.04a2.376 2.376 0 0 1-.76.125h-3c-.937 0-1.696.719-1.696 1.605V7.51c0 .886.76 1.605 1.696 1.605v4.414c0 .813.696 1.472 1.554 1.472.858 0 1.554-.659 1.554-1.472V9.116c.222.01.442.052.652.123Zm.196-1.277 5.935 1.955V2.425L7.152 4.38v3.582ZM5.74 7.776v-3.21H3.196a.275.275 0 0 0-.283.267V7.51c0 .147.127.267.283.267h2.543ZM4.467 9.114v4.28c0 .149.127.268.283.268.156 0 .283-.12.283-.267V9.114h-.566Z"
            fill="currentcolor"/>
    </symbol>
    <symbol id="lan" viewBox="0 0 16 16">
      <path
              d="M2 14.667V10h2V7.333h3.333V6h-2V1.333h5.334V6h-2v1.333H12V10h2v4.667H8.667V10h2V8.667H5.333V10h2v4.667H2Zm4.667-10h2.666v-2H6.667v2Zm-3.334 8.666H6v-2H3.333v2Zm6.667 0h2.667v-2H10v2Z"
              fill="currentcolor"/>
    </symbol>
    <symbol id="coins" viewBox="0 0 16 16">
      <path fill-rule="evenodd" clip-rule="evenodd"
            d="M6.05 5.547c-.108 0-.213 0-.315.002V2.931c0-.531.428-.986 1.285-1.364C7.876 1.19 8.909 1 10.118 1c1.209 0 2.242.19 3.098.567.856.378 1.284.833 1.284 1.364v7.238c0 .539-.424.996-1.272 1.37-.636.28-1.38.456-2.228.526v-.982c.085-.01.17-.02.256-.033.385-.056.74-.13 1.065-.223.325-.093.597-.197.816-.314.219-.117.349-.235.39-.356V8.984a4.51 4.51 0 0 1-.3.145c-.636.28-1.378.456-2.227.526v-.982c.085-.01.17-.02.256-.033.385-.057.74-.131 1.065-.224a4.2 4.2 0 0 0 .816-.313c.219-.117.349-.236.39-.356V6.564a4.868 4.868 0 0 1-.7.302 6.674 6.674 0 0 1-.816.223 8.735 8.735 0 0 1-1.161.16c-.222-.352-.67-.689-1.234-.95a10.47 10.47 0 0 0 1.214-.013 8.23 8.23 0 0 0 1.467-.275c.436-.122.758-.25.965-.383a.151.151 0 0 0 .032-.013.659.659 0 0 0 .232-.237V4.15a4.866 4.866 0 0 1-.7.302 6.672 6.672 0 0 1-.815.223c-.288.06-.59.107-.907.139a10.115 10.115 0 0 1-1.984 0 8.649 8.649 0 0 1-.92-.139 6.38 6.38 0 0 1-.81-.223 4.436 4.436 0 0 1-.68-.302v1.214a.829.829 0 0 0 .141.168l.062.053a9.591 9.591 0 0 0-.863-.038Zm6.247-1.946a7.935 7.935 0 0 1-4.352.006c-.71-.201-1.122-.422-1.236-.664.114-.241.526-.465 1.236-.67a7.79 7.79 0 0 1 4.358.006c.726.21 1.134.43 1.223.664-.09.233-.499.453-1.23.658Z"
            fill="currentcolor"/>
      <path fill-rule="evenodd" clip-rule="evenodd"
            d="M2.772 14.439c.848.374 1.885.561 3.11.561 1.226 0 2.262-.187 3.11-.561.849-.374 1.273-.831 1.273-1.37V8.24c0-.53-.428-.985-1.285-1.364-.856-.378-1.889-.567-3.098-.567-1.209 0-2.242.19-3.098.567-.856.379-1.284.833-1.284 1.364v4.828c0 .539.424.996 1.272 1.37Zm5.29-5.528a7.935 7.935 0 0 1-4.352.006c-.71-.201-1.123-.422-1.236-.664.113-.241.525-.464 1.235-.67a7.79 7.79 0 0 1 4.358.007c.727.209 1.135.43 1.224.663-.09.234-.5.453-1.23.658Zm-1.194 2.661a10.11 10.11 0 0 1-1.984 0 8.665 8.665 0 0 1-.919-.138 6.39 6.39 0 0 1-.81-.224 4.44 4.44 0 0 1-.681-.301V9.46c.203.113.43.213.682.302.251.088.521.163.809.223.288.06.595.107.92.14a10.11 10.11 0 0 0 1.983 0c.317-.033.62-.08.907-.14.288-.06.56-.134.816-.223.255-.089.489-.19.7-.302v1.449a4.868 4.868 0 0 1-.7.301 6.685 6.685 0 0 1-.816.224 8.75 8.75 0 0 1-.907.138Zm.152 2.378a7.87 7.87 0 0 1-1.138.085c-.373 0-.754-.029-1.144-.085a8.195 8.195 0 0 1-1.071-.223 4.306 4.306 0 0 1-.81-.308c-.215-.113-.343-.23-.383-.35v-1.195c.203.113.43.213.682.302.251.088.521.163.809.223.288.06.595.107.92.139a10.11 10.11 0 0 0 1.983 0 8.75 8.75 0 0 0 .907-.139c.288-.06.56-.135.816-.223.255-.089.489-.19.7-.302v1.183c-.04.12-.17.24-.39.356-.219.117-.49.221-.815.314-.325.092-.68.167-1.066.223Z"
            fill="currentcolor"/>
    </symbol>
    <symbol id="book" viewBox="0 0 16 16">
      <path
              d="M9.333 6.6V5.467a5.855 5.855 0 0 1 3.184-.4c.277.044.55.1.816.166V6.3a4.734 4.734 0 0 0-.808-.225A4.745 4.745 0 0 0 11.666 6c-.422 0-.827.053-1.216.158a5.372 5.372 0 0 0-1.117.442Zm0 3.667V9.133a5.854 5.854 0 0 1 3.184-.4c.277.045.55.1.816.167v1.067a4.734 4.734 0 0 0-.808-.225 4.745 4.745 0 0 0-.859-.075c-.422 0-.827.05-1.216.15-.39.1-.761.25-1.117.45Zm0-1.834V7.3a5.854 5.854 0 0 1 3.184-.4c.277.044.55.1.816.167v1.066a4.734 4.734 0 0 0-.808-.225 4.745 4.745 0 0 0-.859-.075c-.422 0-.827.053-1.216.159a5.372 5.372 0 0 0-1.117.441Zm-5 2.234c.522 0 1.03.058 1.525.175a7.32 7.32 0 0 1 1.475.525V4.8a5.71 5.71 0 0 0-1.45-.6 6.116 6.116 0 0 0-2.741-.083A5.777 5.777 0 0 0 2 4.467v6.6a7.553 7.553 0 0 1 1.158-.3c.384-.067.775-.1 1.175-.1Zm4.333.7c.49-.234.981-.409 1.476-.525a6.842 6.842 0 0 1 2.7-.075c.383.066.769.166 1.158.3v-6.6a5.776 5.776 0 0 0-1.142-.35 6.146 6.146 0 0 0-2.742.083 5.71 5.71 0 0 0-1.45.6v6.567ZM8 13.333a6.398 6.398 0 0 0-1.734-.983A5.463 5.463 0 0 0 4.333 12c-.467 0-.925.061-1.375.183-.45.123-.88.295-1.292.517a.642.642 0 0 1-.674-.017.644.644 0 0 1-.325-.583V4.067c0-.123.03-.24.091-.35a.575.575 0 0 1 .275-.25 6.957 6.957 0 0 1 1.6-.6 7.26 7.26 0 0 1 1.7-.2 7.187 7.187 0 0 1 3.667 1 7.187 7.187 0 0 1 3.666-1 7.26 7.26 0 0 1 1.7.2 6.956 6.956 0 0 1 1.6.6.575.575 0 0 1 .276.25.716.716 0 0 1 .091.35V12.1c0 .256-.108.45-.325.583a.642.642 0 0 1-.675.017 6.038 6.038 0 0 0-1.292-.517A5.224 5.224 0 0 0 11.666 12c-.666 0-1.31.117-1.933.35-.622.233-1.2.561-1.733.983Z"
              fill="currentcolor"/>
    </symbol>

    <symbol id="chevron-up" viewBox="0 0 16 16">
      <path d="M7.998 3.94 1.28 10.658l1.414 1.414 5.304-5.304 5.303 5.304 1.414-1.414L7.998 3.94Z"
            fill="currentcolor"/>
    </symbol>
    <symbol id="chevron-down" viewBox="0 0 16 16">
      <path d="M7.998 12.06 1.28 5.342l1.414-1.414 5.304 5.304L13.3 3.928l1.414 1.414-6.717 6.718Z"
            fill="currentcolor"/>
    </symbol>
    <symbol id="chevron-right" viewBox="0 0 16 16">
      <path d="M12.06 7.998 5.343 1.28 3.928 2.694l5.304 5.304L3.928 13.3l1.415 1.414 6.717-6.717Z"
            fill="currentcolor"/>
    </symbol>
    <symbol id="chevron-left" viewBox="0 0 16 16">
      <path d="m3.94 7.998 6.718-6.718 1.414 1.414-5.304 5.304 5.304 5.303-1.414 1.414L3.94 7.998Z"
            fill="currentcolor"/>
    </symbol>
    
    <symbol id="sort" viewBox="0 0 16 16">
      <path
              d="M5.333 8.667V3.883L3.616 5.6l-.95-.933L6 1.333l3.333 3.334-.95.933-1.716-1.717v4.784H5.332Zm4.667 6-3.333-3.334.95-.933 1.716 1.717V7.333h1.333v4.784l1.717-1.717.95.933L10 14.667Z"
              fill="currentcolor"/>
    </symbol>

    <symbol id="sort-asc" viewBox="0 0 16 16">
      <path
              d="M5.333 8.667V3.883L3.616 5.6l-.95-.933L6 1.333l3.333 3.334-.95.933-1.716-1.717v4.784H5.332Z"
              fill="currentcolor"/>
    </symbol>

    <symbol id="sort-desc" viewBox="0 0 16 16">
      <path
              d="m10 14.667-3.333-3.334.95-.933 1.716 1.717V7.333h1.333v4.784l1.717-1.717.95.933L10 14.667Z"
              fill="currentcolor"/>
    </symbol>

    <symbol id="search" viewBox="0 0 16 16">
      <path
              d="m13.067 14-4.2-4.2a4.062 4.062 0 0 1-2.533.867c-1.212 0-2.237-.42-3.076-1.259S2 7.544 2 6.333c0-1.21.42-2.236 1.258-3.075C4.098 2.42 5.122 2 6.333 2s2.236.42 3.075 1.258c.84.84 1.259 1.864 1.259 3.075A4.062 4.062 0 0 1 9.8 8.867l4.2 4.2-.933.933ZM6.333 9.333c.834 0 1.542-.291 2.125-.875a2.893 2.893 0 0 0 .875-2.125c0-.833-.291-1.541-.875-2.125a2.893 2.893 0 0 0-2.125-.875c-.833 0-1.541.292-2.125.875a2.893 2.893 0 0 0-.875 2.125c0 .834.292 1.542.875 2.125a2.893 2.893 0 0 0 2.125.875Z"
              fill="currentcolor"/>
    </symbol>
    <symbol id="chart-bar" viewBox="0 0 16 16">
      <path
              d="M4.667 11.333H6V6.667H4.667v4.666Zm2.666 0h1.334V4.667H7.333v6.666Zm2.667 0h1.333V8.667H10v2.666ZM3.333 14c-.366 0-.68-.13-.941-.392A1.284 1.284 0 0 1 2 12.667V3.333c0-.366.13-.68.392-.941.26-.261.575-.392.941-.392h9.334c.366 0 .68.13.941.392.261.26.392.575.392.941v9.334c0 .366-.13.68-.392.941a1.284 1.284 0 0 1-.941.392H3.333Zm0-1.333h9.334V3.333H3.333v9.334Z"
              fill="currentcolor"/>
    </symbol>
    <symbol id="open_in_new" viewBox="0 0 16 16">
      <path
              d="M3.333 14c-.366 0-.68-.13-.941-.392A1.284 1.284 0 0 1 2 12.667V3.333c0-.366.13-.68.392-.941.26-.261.575-.392.941-.392H8v1.333H3.333v9.334h9.334V8H14v4.667c0 .366-.13.68-.392.941a1.284 1.284 0 0 1-.941.392H3.333Zm3.134-3.533-.934-.934 6.2-6.2h-2.4V2H14v4.667h-1.333v-2.4l-6.2 6.2Z"
              fill="currentcolor"/>
    </symbol>
    <symbol id="plus" viewBox="0 0 16 16">
      <path d="M7.333 8.667h-4V7.333h4v-4h1.334v4h4v1.334h-4v4H7.334v-4Z" fill="currentcolor"/>
    </symbol>
    <symbol id="minus" viewBox="0 0 16 16">
      <path d="M3.333 8.667V7.333h9.334v1.334H3.334Z" fill="currentcolor"/>
    </symbol>
    <symbol id="circle-minus-solid" viewBox="0 0 16 16">
      <path
              d="M4.667 8.667h6.667V7.333H4.667v1.334Zm3.333 6a6.492 6.492 0 0 1-2.6-.525 6.732 6.732 0 0 1-2.117-1.425A6.732 6.732 0 0 1 1.86 10.6 6.492 6.492 0 0 1 1.333 8c0-.922.175-1.789.526-2.6a6.732 6.732 0 0 1 1.425-2.117c.6-.6 1.305-1.075 2.116-1.425A6.492 6.492 0 0 1 8 1.333c.922 0 1.789.175 2.6.525.811.35 1.517.825 2.117 1.425.6.6 1.075 1.306 1.425 2.117.35.811.525 1.678.525 2.6 0 .922-.175 1.789-.525 2.6a6.732 6.732 0 0 1-1.425 2.117c-.6.6-1.306 1.075-2.117 1.425a6.492 6.492 0 0 1-2.6.525Z"
              fill="currentcolor"/>
    </symbol>
    <symbol id="circle-plus-solid" viewBox="0 0 16 16">
      <path
              d="M7.333 11.333h1.334V8.667h2.667V7.333H8.667V4.667H7.334v2.666H4.667v1.334h2.667v2.666ZM8 14.667a6.492 6.492 0 0 1-2.6-.525 6.732 6.732 0 0 1-2.117-1.425A6.732 6.732 0 0 1 1.86 10.6 6.492 6.492 0 0 1 1.333 8c0-.922.175-1.789.526-2.6a6.732 6.732 0 0 1 1.425-2.117c.6-.6 1.305-1.075 2.116-1.425A6.492 6.492 0 0 1 8 1.333c.922 0 1.789.175 2.6.525.811.35 1.517.825 2.117 1.425.6.6 1.075 1.306 1.425 2.117.35.811.525 1.678.525 2.6 0 .922-.175 1.789-.525 2.6a6.732 6.732 0 0 1-1.425 2.117c-.6.6-1.306 1.075-2.117 1.425a6.492 6.492 0 0 1-2.6.525Z"
              fill="currentcolor"/>
    </symbol>
    <symbol id="circle-minus-outlines" viewBox="0 0 16 16">
      <path
              d="M7.333 11.333h1.334V8.667h2.667V7.333H8.667V4.667H7.334v2.666H4.667v1.334h2.667v2.666ZM8 14.667a6.492 6.492 0 0 1-2.6-.525 6.732 6.732 0 0 1-2.117-1.425A6.732 6.732 0 0 1 1.86 10.6 6.492 6.492 0 0 1 1.333 8c0-.922.175-1.789.526-2.6a6.732 6.732 0 0 1 1.425-2.117c.6-.6 1.305-1.075 2.116-1.425A6.492 6.492 0 0 1 8 1.333c.922 0 1.789.175 2.6.525.811.35 1.517.825 2.117 1.425.6.6 1.075 1.306 1.425 2.117.35.811.525 1.678.525 2.6 0 .922-.175 1.789-.525 2.6a6.732 6.732 0 0 1-1.425 2.117c-.6.6-1.306 1.075-2.117 1.425a6.492 6.492 0 0 1-2.6.525Zm0-1.334c1.49 0 2.75-.516 3.784-1.55 1.033-1.033 1.55-2.294 1.55-3.783 0-1.489-.517-2.75-1.55-3.783C10.75 3.183 9.489 2.667 8 2.667c-1.489 0-2.75.516-3.783 1.55C3.184 5.25 2.667 6.51 2.667 8c0 1.489.517 2.75 1.55 3.783C5.25 12.817 6.51 13.333 8 13.333Z"
              fill="currentcolor"/>
    </symbol>
    <symbol id="circle-minus-outlines" viewBox="0 0 16 16">
      <path
              d="M4.667 8.667h6.667V7.333H4.667v1.334Zm3.333 6a6.492 6.492 0 0 1-2.6-.525 6.732 6.732 0 0 1-2.117-1.425A6.732 6.732 0 0 1 1.86 10.6 6.492 6.492 0 0 1 1.333 8c0-.922.175-1.789.526-2.6a6.732 6.732 0 0 1 1.425-2.117c.6-.6 1.305-1.075 2.116-1.425A6.492 6.492 0 0 1 8 1.333c.922 0 1.789.175 2.6.525.811.35 1.517.825 2.117 1.425.6.6 1.075 1.306 1.425 2.117.35.811.525 1.678.525 2.6 0 .922-.175 1.789-.525 2.6a6.732 6.732 0 0 1-1.425 2.117c-.6.6-1.306 1.075-2.117 1.425a6.492 6.492 0 0 1-2.6.525Zm0-1.334c1.49 0 2.75-.516 3.784-1.55 1.033-1.033 1.55-2.294 1.55-3.783 0-1.489-.517-2.75-1.55-3.783C10.75 3.183 9.489 2.667 8 2.667c-1.489 0-2.75.516-3.783 1.55C3.184 5.25 2.667 6.51 2.667 8c0 1.489.517 2.75 1.55 3.783C5.25 12.817 6.51 13.333 8 13.333Z"
              fill="currentcolor"/>
    </symbol>
    <symbol id="checked" viewBox="0 0 16 16">
      <g clip-path="url(#clip0_2117_19179)">
        <path
                d="m6.644 11.533 6.423-6.444-.956-.956-5.467 5.49L4 6.977l-.956.955 3.6 3.6ZM1.334 16a1.28 1.28 0 0 1-.934-.4 1.28 1.28 0 0 1-.4-.933V1.333C0 .978.133.667.4.4s.578-.4.933-.4h13.334c.355 0 .666.133.933.4s.4.578.4.933v13.334c0 .355-.133.666-.4.933a1.28 1.28 0 0 1-.933.4H1.333Z"
                fill="currentcolor"/>
      </g>
      <defs>
        <clipPath id="clip0_2117_19179">
          <path fill="currentcolor" d="M0 0h16v16H0z"/>
        </clipPath>
      </defs>
    </symbol>
    <symbol id="user" viewBox="0 0 16 16">
      <path
              d="M8 8a2.568 2.568 0 0 1-1.883-.783 2.568 2.568 0 0 1-.784-1.884c0-.733.261-1.36.784-1.883A2.568 2.568 0 0 1 8 2.667c.733 0 1.361.26 1.883.783.522.522.784 1.15.784 1.883 0 .734-.262 1.361-.784 1.884A2.568 2.568 0 0 1 8 8Zm-5.333 5.333v-1.866c0-.378.097-.725.291-1.042.195-.317.453-.558.775-.725a9.898 9.898 0 0 1 2.1-.775 9.172 9.172 0 0 1 4.333 0c.712.172 1.412.43 2.1.775.323.167.581.408.775.725.195.317.292.664.292 1.042v1.866H2.667ZM4 12h8v-.533a.65.65 0 0 0-.333-.567c-.6-.3-1.206-.525-1.817-.675a7.734 7.734 0 0 0-3.7 0 8.69 8.69 0 0 0-1.817.675.65.65 0 0 0-.333.567V12Zm4-5.333c.367 0 .68-.13.941-.392.262-.261.392-.575.392-.942 0-.366-.13-.68-.392-.941A1.284 1.284 0 0 0 8 4c-.367 0-.68.13-.942.392a1.284 1.284 0 0 0-.391.941c0 .367.13.68.391.942.261.261.575.392.942.392Z"
              fill="currentcolor"/>
    </symbol>
    <symbol id="edit" viewBox="0 0 16 16">
      <path
              d="M3.333 12.667h.95L10.8 6.15l-.95-.95-6.517 6.517v.95ZM2 14v-2.833l8.8-8.784c.133-.122.28-.216.442-.283a1.38 1.38 0 0 1 1.025 0c.166.067.31.167.433.3l.917.933c.133.123.23.267.291.434a1.444 1.444 0 0 1 0 1.008 1.25 1.25 0 0 1-.291.442L4.833 14H2Zm8.317-8.317L9.85 5.2l.95.95-.483-.467Z"
              fill="currentcolor"/>
    </symbol>
    <symbol id="warning" viewBox="0 0 16 16">
      <path
              d="M2.401 14a1 1 0 0 1-.865-1.501l5.598-9.67a1 1 0 0 1 1.731 0l5.6 9.67A1 1 0 0 1 13.598 14H2.4ZM8 12a.645.645 0 0 0 .475-.192.645.645 0 0 0 .191-.475.645.645 0 0 0-.191-.475.645.645 0 0 0-.475-.191.645.645 0 0 0-.475.191.645.645 0 0 0-.192.475c0 .19.064.348.192.475A.645.645 0 0 0 8 12Zm-.667-2.667a.667.667 0 0 0 1.333 0v-2a.667.667 0 1 0-1.333 0v2Z"
              fill="currentcolor"/>
    </symbol>
    <symbol id="unchecked" viewBox="0 0 16 16">
      <g clip-path="url(#clip0_2216_4070)">
        <mask id="path-1-inside-1_2216_4070" fill="#fff">
          <rect width="16" height="16" rx="1"/>
        </mask>
        <rect width="16" height="16" rx="1" stroke="currentcolor" stroke-width="4"
              mask="url(#path-1-inside-1_2216_4070)"/>
      </g>
      <defs>
        <clipPath id="clip0_2216_4070">
          <path fill="currentcolor" d="M0 0h16v16H0z"/>
        </clipPath>
      </defs>
    </symbol>
    <symbol id="link" viewBox="1 0 14 14">
      <path
              d="M7.333 11.333H4.668a3.213 3.213 0 0 1-2.358-.975A3.213 3.213 0 0 1 1.333 8c0-.922.326-1.708.976-2.358a3.213 3.213 0 0 1 2.358-.975h2.667V6H4.667c-.556 0-1.028.194-1.417.583A1.929 1.929 0 0 0 2.667 8c0 .556.194 1.028.583 1.417.39.389.861.583 1.417.583h2.667v1.333Zm-2-2.666V7.333h5.334v1.334H5.334Zm3.334 2.666V10h2.667c.555 0 1.027-.194 1.416-.583.39-.39.584-.861.584-1.417s-.195-1.028-.584-1.417A1.929 1.929 0 0 0 11.334 6H8.667V4.667h2.667c.922 0 1.708.325 2.358.975.65.65.975 1.436.975 2.358 0 .922-.325 1.708-.975 2.358-.65.65-1.436.975-2.358.975H8.667Z"
              fill="currentcolor"/>
    </symbol>

    <symbol id="download" viewBox="0 0 16 16">
          <path d="M8.00033 10.6666L4.66699 7.33329L5.60033 6.36663L7.33366 8.09996V2.66663H8.66699V8.09996L10.4003 6.36663L11.3337 7.33329L8.00033 10.6666ZM4.00033 13.3333C3.63366 13.3333 3.31977 13.2027 3.05866 12.9416C2.79755 12.6805 2.66699 12.3666 2.66699 12V9.99996H4.00033V12H12.0003V9.99996H13.3337V12C13.3337 12.3666 13.2031 12.6805 12.942 12.9416C12.6809 13.2027 12.367 13.3333 12.0003 13.3333H4.00033Z" fill="white"/>
    </symbol>

    <symbol id="close" viewBox="0 0 16 16">
      <path
              d="m4.267 12.667-.934-.934L7.067 8 3.333 4.267l.934-.934L8 7.067l3.733-3.734.934.934L8.934 8l3.733 3.733-.934.934L8 8.933l-3.733 3.734Z"
              fill="currentcolor"/>
    </symbol>
    <symbol id="info" viewBox="0 0 16 16">
      <path
              d="M7.333 11.333h1.334v-4H7.334v4ZM8 6a.645.645 0 0 0 .475-.192.645.645 0 0 0 .192-.475.645.645 0 0 0-.192-.475A.645.645 0 0 0 8 4.667a.645.645 0 0 0-.475.191.645.645 0 0 0-.192.475c0 .19.064.348.192.475A.645.645 0 0 0 8 6Zm0 8.667a6.492 6.492 0 0 1-2.6-.525 6.732 6.732 0 0 1-2.117-1.425A6.732 6.732 0 0 1 1.86 10.6 6.492 6.492 0 0 1 1.333 8c0-.922.175-1.789.526-2.6a6.732 6.732 0 0 1 1.425-2.117c.6-.6 1.305-1.075 2.116-1.425A6.492 6.492 0 0 1 8 1.333c.922 0 1.789.175 2.6.525.811.35 1.517.825 2.117 1.425.6.6 1.075 1.306 1.425 2.117.35.811.525 1.678.525 2.6 0 .922-.175 1.789-.525 2.6a6.732 6.732 0 0 1-1.425 2.117c-.6.6-1.306 1.075-2.117 1.425a6.492 6.492 0 0 1-2.6.525Z"
              fill="currentcolor"/>
    </symbol>

    <symbol id="info-transparent" viewBox="0 0 16 16">
      <path d="M7.33301 4.66536H8.66634V5.9987H7.33301V4.66536ZM7.33301 7.33203H8.66634V11.332H7.33301V7.33203ZM7.99967 1.33203C4.31967 1.33203 1.33301 4.3187 1.33301 7.9987C1.33301 11.6787 4.31967 14.6654 7.99967 14.6654C11.6797 14.6654 14.6663 11.6787 14.6663 7.9987C14.6663 4.3187 11.6797 1.33203 7.99967 1.33203ZM7.99967 13.332C5.05967 13.332 2.66634 10.9387 2.66634 7.9987C2.66634 5.0587 5.05967 2.66536 7.99967 2.66536C10.9397 2.66536 13.333 5.0587 13.333 7.9987C13.333 10.9387 10.9397 13.332 7.99967 13.332Z" fill="#4546B9"/>
    </symbol>

    <symbol id="orcid" viewBox="0 0 16 16">
      <g clip-path="url(#clip0_4730_29543)" fill="currentcolor">
        <path d="M16 8a8 8 0 0 1-8 8 8 8 0 0 1-8-8 8 8 0 0 1 8-8 8 8 0 0 1 8 8Z"/>
        <path
                d="M5.394 11.637H4.43V4.944h.963v6.693ZM6.806 4.944h2.6c2.475 0 3.563 1.769 3.563 3.35 0 1.718-1.344 3.35-3.55 3.35H6.806v-6.7Zm.963 5.831h1.53c2.182 0 2.682-1.656 2.682-2.481 0-1.344-.856-2.481-2.731-2.481H7.769v4.962ZM5.544 3.55a.634.634 0 0 1-.631.631.634.634 0 0 1-.632-.631.63.63 0 0 1 .631-.631c.35 0 .632.287.632.631Z"/>
      </g>
      <defs>
        <clipPath id="clip0_4730_29543">
          <path fill="currentcolor" d="M0 0h16v16H0z"/>
        </clipPath>
      </defs>
    </symbol>
    <symbol id="email" viewBox="0 0 16 16">
      <path
              d="M2.667 13.333c-.367 0-.68-.13-.942-.391A1.284 1.284 0 0 1 1.333 12V4c0-.367.131-.68.392-.942.261-.26.575-.391.942-.391h10.666c.367 0 .681.13.942.391.261.261.392.575.392.942v8c0 .367-.13.68-.392.942a1.284 1.284 0 0 1-.941.391H2.667ZM8 8.667 2.667 5.333V12h10.666V5.333L8 8.667Zm0-1.334L13.334 4H2.667L8 7.333Zm-5.333-2V4v8-6.667Z"
              fill="currentcolor"/>
    </symbol>
    <symbol id="share" viewBox="0 0 16 16">
      <path
              d="M11.334 14.667a1.929 1.929 0 0 1-1.417-.584 1.929 1.929 0 0 1-.583-1.416c0-.067.016-.223.05-.467L4.7 9.467A1.977 1.977 0 0 1 3.333 10a1.929 1.929 0 0 1-1.416-.583A1.929 1.929 0 0 1 1.333 8c0-.556.195-1.028.584-1.417A1.929 1.929 0 0 1 3.333 6a1.98 1.98 0 0 1 1.367.533L9.383 3.8a1.137 1.137 0 0 1-.041-.225 3.172 3.172 0 0 1-.008-.242c0-.555.194-1.027.583-1.416a1.929 1.929 0 0 1 1.417-.584c.555 0 1.027.195 1.416.584.39.389.584.86.584 1.416 0 .556-.195 1.028-.584 1.417a1.929 1.929 0 0 1-1.416.583A1.98 1.98 0 0 1 9.966 4.8L5.283 7.533c.023.078.037.153.042.225a3.172 3.172 0 0 1 0 .484c-.005.072-.02.147-.042.225L9.968 11.2a1.978 1.978 0 0 1 1.367-.533 1.93 1.93 0 0 1 1.416.583c.39.389.584.861.584 1.417 0 .555-.195 1.027-.584 1.416a1.929 1.929 0 0 1-1.416.584Zm0-1.334a.645.645 0 0 0 .475-.191.645.645 0 0 0 .191-.475.645.645 0 0 0-.191-.475.645.645 0 0 0-.475-.192.645.645 0 0 0-.476.192.645.645 0 0 0-.191.475c0 .189.064.347.191.475a.645.645 0 0 0 .476.191Zm-8-4.666a.645.645 0 0 0 .474-.192A.645.645 0 0 0 4 8a.645.645 0 0 0-.192-.475.645.645 0 0 0-.474-.192.645.645 0 0 0-.476.192.645.645 0 0 0-.191.475c0 .189.064.347.192.475a.645.645 0 0 0 .474.192Zm8-4.667a.645.645 0 0 0 .475-.192.645.645 0 0 0 .191-.475.645.645 0 0 0-.191-.475.645.645 0 0 0-.475-.191.645.645 0 0 0-.476.191.645.645 0 0 0-.191.475c0 .19.064.348.191.475a.645.645 0 0 0 .476.192Z"
              fill="currentcolor"/>
    </symbol>
    <symbol id="filter" viewBox="0 0 16 16">
      <path
              d="M7.333 14v-4h1.334v1.333H14v1.334H8.667V14H7.333ZM2 12.667v-1.334h4v1.334H2ZM4.667 10V8.667H2V7.333h2.667V6H6v4H4.667Zm2.666-1.333V7.333H14v1.334H7.333ZM10 6V2h1.333v1.333H14v1.334h-2.667V6H10ZM2 4.667V3.333h6.667v1.334H2Z"
              fill="currentcolor"/>
    </symbol>
    <symbol id="lock_open" viewBox="0 0 16 16">
      <path
              d="M7.385 11.275a1.284 1.284 0 0 1-.942.392c-.366 0-.68-.13-.941-.392a1.284 1.284 0 0 1-.392-.942c0-.366.13-.68.392-.941.26-.261.575-.392.941-.392.367 0 .68.13.942.392.261.26.392.575.392.941 0 .367-.131.68-.392.942Z"
              fill="currentcolor"/>
      <path fill-rule="evenodd" clip-rule="evenodd"
            d="M8.22 5.667V4.333c0-.922.325-1.708.975-2.358A3.213 3.213 0 0 1 11.553 1c.922 0 1.708.325 2.358.975.65.65.975 1.436.975 2.358h-1.333c0-.555-.195-1.027-.583-1.416a1.929 1.929 0 0 0-1.417-.584c-.556 0-1.028.195-1.417.584a1.929 1.929 0 0 0-.583 1.416v1.334h.89c.367 0 .68.13.942.391.261.261.392.575.392.942v6.667c0 .366-.131.68-.392.941a1.284 1.284 0 0 1-.942.392h-8c-.366 0-.68-.13-.941-.392a1.284 1.284 0 0 1-.392-.941V7c0-.367.13-.68.392-.942.26-.26.575-.391.941-.391H8.22ZM10.443 7v6.667h-8V7h8Z"
            fill="currentcolor"/>
    </symbol>
    <symbol id="delete" viewBox="0 0 16 16">
      <path
              d="M4.667 14c-.367 0-.681-.13-.942-.392a1.284 1.284 0 0 1-.392-.941V4h-.667V2.667H6V2h4v.667h3.333V4h-.667v8.667c0 .366-.13.68-.391.941a1.284 1.284 0 0 1-.942.392H4.666Zm6.666-10H4.666v8.667h6.667V4ZM6 11.333h1.333v-6H6v6Zm2.666 0H10v-6H8.666v6Z"
              fill="currentcolor"/>
    </symbol>
    <symbol id="locked" viewBox="0 0 16 16">
      <path
              d="M4 14.667c-.367 0-.68-.13-.942-.392a1.284 1.284 0 0 1-.391-.942V6.667c0-.367.13-.68.391-.942.261-.261.575-.392.942-.392h.667V4c0-.922.325-1.708.974-2.358A3.213 3.213 0 0 1 8 .667c.922 0 1.708.325 2.358.975.65.65.975 1.436.975 2.358v1.333H12c.367 0 .68.13.941.392.262.261.392.575.392.942v6.666c0 .367-.13.68-.392.942a1.284 1.284 0 0 1-.941.392H4Zm0-1.334h8V6.667H4v6.666Zm4-2c.367 0 .68-.13.941-.391.262-.261.392-.575.392-.942s-.13-.68-.392-.942A1.284 1.284 0 0 0 8 8.667c-.367 0-.68.13-.942.391a1.284 1.284 0 0 0-.391.942c0 .367.13.68.391.942.261.26.575.391.942.391Zm-2-6h4V4c0-.556-.195-1.028-.584-1.417A1.929 1.929 0 0 0 8 2c-.556 0-1.028.194-1.417.583A1.929 1.929 0 0 0 6 4v1.333Z"
              fill="currentcolor"/>
    </symbol>
    <symbol id="sort_list" viewBox="0 0 16 16">
      <path d="M2 12v-1.333h4V12H2Zm0-3.333V7.333h8v1.334H2Zm0-3.334V4h12v1.333H2Z" fill="currentcolor"/>
    </symbol>
  </defs>
</svg>