<svg width="16" height="16" viewBox="0 0 16 16" fill="none" xmlns="http://www.w3.org/2000/svg">
    <path d="M9.77778 4.88867C9.77778 3.66089 10.7722 2.66645 12 2.66645C13.2278 2.66645 14.2222 3.66089 14.2222 4.88867V6.22201C14.2222 6.71367 14.6194 7.1109 15.1111 7.1109C15.6028 7.1109 16 6.71367 16 6.22201V4.88867C16 2.68034 14.2083 0.888672 12 0.888672C9.79167 0.888672 8 2.68034 8 4.88867V6.22201H1.77778C0.797222 6.22201 0 7.01923 0 7.99978V13.3331C0 14.3137 0.797222 15.1109 1.77778 15.1109H10.6667C11.6472 15.1109 12.4444 14.3137 12.4444 13.3331V7.99978C12.4444 7.01923 11.6472 6.22201 10.6667 6.22201H9.77778V4.88867Z" fill="#B84F0A"/>
</svg>
