<svg width="16" height="16" viewBox="0 0 16 16" fill="none" xmlns="http://www.w3.org/2000/svg">
<path d="M7.99984 8.00002C7.2665 8.00002 6.63873 7.73891 6.1165 7.21669C5.59428 6.69446 5.33317 6.06669 5.33317 5.33335C5.33317 4.60002 5.59428 3.97224 6.1165 3.45002C6.63873 2.9278 7.2665 2.66669 7.99984 2.66669C8.73317 2.66669 9.36095 2.9278 9.88317 3.45002C10.4054 3.97224 10.6665 4.60002 10.6665 5.33335C10.6665 6.06669 10.4054 6.69446 9.88317 7.21669C9.36095 7.73891 8.73317 8.00002 7.99984 8.00002ZM2.6665 13.3334V11.4667C2.6665 11.0889 2.76373 10.7417 2.95817 10.425C3.15262 10.1084 3.41095 9.86669 3.73317 9.70002C4.42206 9.35558 5.12206 9.09724 5.83317 8.92502C6.54428 8.7528 7.2665 8.66669 7.99984 8.66669C8.73317 8.66669 9.45539 8.7528 10.1665 8.92502C10.8776 9.09724 11.5776 9.35558 12.2665 9.70002C12.5887 9.86669 12.8471 10.1084 13.0415 10.425C13.2359 10.7417 13.3332 11.0889 13.3332 11.4667V13.3334H2.6665ZM3.99984 12H11.9998V11.4667C11.9998 11.3445 11.9693 11.2334 11.9082 11.1334C11.8471 11.0334 11.7665 10.9556 11.6665 10.9C11.0665 10.6 10.4609 10.375 9.84984 10.225C9.23873 10.075 8.62206 10 7.99984 10C7.37762 10 6.76095 10.075 6.14984 10.225C5.53873 10.375 4.93317 10.6 4.33317 10.9C4.23317 10.9556 4.15262 11.0334 4.0915 11.1334C4.03039 11.2334 3.99984 11.3445 3.99984 11.4667V12ZM7.99984 6.66669C8.3665 6.66669 8.68039 6.53613 8.9415 6.27502C9.20262 6.01391 9.33317 5.70002 9.33317 5.33335C9.33317 4.96669 9.20262 4.6528 8.9415 4.39169C8.68039 4.13058 8.3665 4.00002 7.99984 4.00002C7.63317 4.00002 7.31928 4.13058 7.05817 4.39169C6.79706 4.6528 6.6665 4.96669 6.6665 5.33335C6.6665 5.70002 6.79706 6.01391 7.05817 6.27502C7.31928 6.53613 7.63317 6.66669 7.99984 6.66669Z" fill="#4546B9"/>
</svg>
