<svg width="16" height="16" viewBox="0 0 16 16" fill="none" xmlns="http://www.w3.org/2000/svg">
<path d="M0.666504 14L7.99984 1.33331L15.3332 14H0.666504ZM7.99984 12C8.18873 12 8.34706 11.9361 8.47484 11.8083C8.60262 11.6805 8.6665 11.5222 8.6665 11.3333C8.6665 11.1444 8.60262 10.9861 8.47484 10.8583C8.34706 10.7305 8.18873 10.6666 7.99984 10.6666C7.81095 10.6666 7.65262 10.7305 7.52484 10.8583C7.39706 10.9861 7.33317 11.1444 7.33317 11.3333C7.33317 11.5222 7.39706 11.6805 7.52484 11.8083C7.65262 11.9361 7.81095 12 7.99984 12ZM7.33317 9.99998H8.6665V6.66665H7.33317V9.99998Z" fill="#4546B9"/>
</svg>
